<?xml version="1.0" encoding="utf-8"?>
<!-- Generator: Adobe Illustrator 27.0.1, SVG Export Plug-In . SVG Version: 6.00 Build 0)  -->
<svg version="1.1" id="Layer_1" xmlns="http://www.w3.org/2000/svg" xmlns:xlink="http://www.w3.org/1999/xlink" x="0px" y="0px"
	 viewBox="0 0 288 280" style="enable-background:new 0 0 288 280;" xml:space="preserve">
<style type="text/css">
	.st0{fill:none;stroke:#FF9500;stroke-miterlimit:10;}
	.st1{fill:#09DFF8;}
	.st2{fill:#03115B;}
	.st3{fill:#113299;}
	.st4{fill:#142770;}
</style>
<line class="st0" x1="190.26" y1="156.4" x2="189.99" y2="155.93"/>
<path class="st1" d="M153.93,97.74c0,4.62-3.15,8.5-7.43,9.61c-0.8,0.21-1.64,0.32-2.51,0.32c-0.86,0-1.7-0.11-2.5-0.32
	c-4.28-1.1-7.43-4.99-7.43-9.61c0-1.66,0.41-3.22,1.13-4.59l0.38-0.66l1.22-2.11l1.99-3.44l3.72-6.46c0.67-1.15,2.33-1.15,3,0
	l3.73,6.46l1.99,3.44l1.21,2.09l0.39,0.68C153.53,94.53,153.93,96.09,153.93,97.74z"/>
<line class="st0" x1="212.25" y1="162.39" x2="212.24" y2="162.39"/>
<path class="st2" d="M216.3,169.49l-4.06-7.1L161.16,73l-3.99-6.99l-0.02-0.02c-2.5-4.71-7.45-7.91-13.16-7.91
	c-5.53,0-10.36,3.01-12.93,7.49l-0.2,0.36l-4.03,7.05l-51.09,89.4l-4.1,7.17l-0.16,0.28c-1.28,2.19-2,4.74-2,7.45
	c0,8.23,6.67,14.9,14.9,14.9h8.65l4.1-7.17l0.36-0.63l12.56-21.99l20.79-36.41l0.36-0.64l0.07-0.13c2.62-4.28,7.33-7.13,12.72-7.13
	c5.4,0,10.13,2.88,12.74,7.17l0.24,0.42l0.12,0.2l20.85,36.51l12.46,21.82l0.01,0.01l0.52,0.91l0.01,0.01l4.03,7.05h8.64
	c8.23,0,14.9-6.67,14.9-14.9C218.51,174.43,217.7,171.75,216.3,169.49z M146.51,107.36c-0.8,0.21-1.64,0.32-2.51,0.32
	c-0.86,0-1.7-0.11-2.5-0.32c-4.28-1.1-7.43-4.99-7.43-9.61c0-1.66,0.41-3.22,1.13-4.59c0.12-0.23,0.24-0.45,0.38-0.66l1.22-2.11
	l1.99-3.44l1.86-3.23c1.49-2.59,5.22-2.59,6.72,0l1.87,3.24l1.99,3.44l1.21,2.09l0.39,0.68c0.72,1.37,1.12,2.94,1.12,4.59
	C153.93,102.36,150.78,106.25,146.51,107.36z"/>
<path class="st1" d="M158.9,132.98v74.04c0,8.23-6.67,14.9-14.9,14.9c-8.23,0-14.9-6.67-14.9-14.9v-74.04c0-2.53,0.63-4.92,1.75-7
	l0.36-0.64l0.07-0.13c2.62-4.28,7.33-7.13,12.72-7.13c5.4,0,10.13,2.88,12.74,7.17l0.24,0.42l0.12,0.2
	C158.25,127.99,158.9,130.41,158.9,132.98z"/>
<line class="st0" x1="216.56" y1="169.95" x2="216.3" y2="169.49"/>
<path class="st3" d="M158.9,162.39v-29.41c0-2.57-0.65-4.99-1.8-7.1l20.85,36.51H158.9z"/>
<polygon class="st4" points="194.97,192.19 158.9,192.19 158.9,162.39 177.95,162.39 190.41,184.21 190.42,184.22 190.93,185.13 
	190.94,185.14 "/>
<path class="st3" d="M130.85,125.98c-1.12,2.09-1.75,4.47-1.75,7v29.41h-19.04L130.85,125.98z"/>
<polygon class="st4" points="129.1,162.39 129.1,192.19 93.04,192.19 97.14,185.02 97.5,184.38 110.06,162.39 "/>
</svg>
